<mxfile host="Electron" modified="2023-12-29T05:49:00.969Z" agent="Mozilla/5.0 (X11; Linux x86_64) AppleWebKit/537.36 (KHTML, like Gecko) draw.io/22.1.11 Chrome/114.0.5735.289 Electron/25.9.8 Safari/537.36" etag="6yo0OzdBB8pkjOCV_e1Y" version="22.1.11" type="device">
  <diagram name="PÃ¡gina-1" id="NalPB5p7bbc-7Vmc2CJB">
    <mxGraphModel dx="604" dy="373" grid="1" gridSize="10" guides="1" tooltips="1" connect="1" arrows="1" fold="1" page="1" pageScale="1" pageWidth="827" pageHeight="1169" math="0" shadow="0">
      <root>
        <mxCell id="0" />
        <mxCell id="1" parent="0" />
        <mxCell id="-L1hIuyJhkNEQne6_cnx-1" value="Archivo" style="swimlane;fontStyle=1;align=center;verticalAlign=top;childLayout=stackLayout;horizontal=1;startSize=26;horizontalStack=0;resizeParent=1;resizeParentMax=0;resizeLast=0;collapsible=1;marginBottom=0;whiteSpace=wrap;html=1;" vertex="1" parent="1">
          <mxGeometry x="334" y="70" width="160" height="190" as="geometry" />
        </mxCell>
        <mxCell id="-L1hIuyJhkNEQne6_cnx-2" value="- base: list&lt;br&gt;- nombre:&amp;nbsp; str" style="text;strokeColor=none;fillColor=none;align=left;verticalAlign=top;spacingLeft=4;spacingRight=4;overflow=hidden;rotatable=0;points=[[0,0.5],[1,0.5]];portConstraint=eastwest;whiteSpace=wrap;html=1;" vertex="1" parent="-L1hIuyJhkNEQne6_cnx-1">
          <mxGeometry y="26" width="160" height="44" as="geometry" />
        </mxCell>
        <mxCell id="-L1hIuyJhkNEQne6_cnx-3" value="" style="line;strokeWidth=1;fillColor=none;align=left;verticalAlign=middle;spacingTop=-1;spacingLeft=3;spacingRight=3;rotatable=0;labelPosition=right;points=[];portConstraint=eastwest;strokeColor=inherit;" vertex="1" parent="-L1hIuyJhkNEQne6_cnx-1">
          <mxGeometry y="70" width="160" height="8" as="geometry" />
        </mxCell>
        <mxCell id="-L1hIuyJhkNEQne6_cnx-4" value="+ actualizar(): void&lt;br&gt;+ Constructor()&lt;br&gt;+ getterNombre(): str&lt;br&gt;+ getterBase(): list&lt;br&gt;+ extraer(): list&lt;br&gt;+ extraerCampo(indx): list&lt;br&gt;+ volcar(newbase): void" style="text;strokeColor=none;fillColor=none;align=left;verticalAlign=top;spacingLeft=4;spacingRight=4;overflow=hidden;rotatable=0;points=[[0,0.5],[1,0.5]];portConstraint=eastwest;whiteSpace=wrap;html=1;" vertex="1" parent="-L1hIuyJhkNEQne6_cnx-1">
          <mxGeometry y="78" width="160" height="112" as="geometry" />
        </mxCell>
      </root>
    </mxGraphModel>
  </diagram>
</mxfile>
